<svg id="Capa_1" enable-background="new 0 0 512 512" height="512" viewBox="0 0 512 512" width="512" xmlns="http://www.w3.org/2000/svg"><g><g><path d="m455.68 360.306c0-111.767-89.399-202.372-199.678-202.372s-199.679 90.605-199.679 202.372 89.399 120.2 199.678 120.2 199.679-8.433 199.679-120.2z" fill="#665e66"/><path d="m253.379 480.498c-109.067-.134-197.056-9.307-197.056-120.192 0-111.763 89.405-202.368 199.681-202.368-56.128 0-101.623 90.605-101.623 202.368 0 110.025 44.089 119.914 98.998 120.192z" fill="#454045"/><path d="m399.394 434.335c-2.123 41.285-35.158 74.15-76.452 76.094-35.418 1.675-70.836 2.006-106.254 1.012h-.063c-8.984-.251-17.96-.591-26.944-1.012-41.285-1.944-74.329-34.809-76.443-76.094-1.559-30.303-1.684-60.615-.376-90.928v-.009c.394-9.441.941-18.882 1.621-28.324 6.548-31.1 32.175-67.988 67.978-83.574 1.057-.457 2.123-.914 3.198-1.353 14.484-5.939 30.554-10.104 47.636-12.093 7.489-.896 15.174-1.344 23.021-1.344 17.404 0 34.083 2.239 49.517 6.351v.009c48.317 12.845 84.424 54.283 92.316 92.111 0 .009 0 .018.009.027 2.857 39.71 3.269 79.418 1.236 119.127z" fill="#f1d0a5"/><path d="m216.687 511.441h-.063c-8.984-.251-17.96-.591-26.944-1.012-41.285-1.944-74.329-34.809-76.443-76.094-2.042-39.744-1.621-79.507 1.245-119.26 6.548-31.1 32.175-57.686 67.978-73.272 1.057-.457 2.123-.914 3.198-1.353-2.454 59.854-3.036 146.563-1.783 195.578.969 37.675 14.736 68.4 32.812 75.413z" fill="#f1b986"/><path d="m305.832 233.365v.009c-23.791 40.801-80.832 94.439-103.531 81.63-8.304-4.694-7.22-14.359-2.535-24.759-.672 1.173-15.326 26.586-35.436 43.524-15.263 12.863-33.662 20.853-51.47 9.638v-.009c.394-9.441.941-18.882 1.621-28.324 6.548-31.1 32.175-57.686 67.978-73.272 1.057-.457 2.123-.914 3.198-1.353 14.484-5.939 30.554-10.104 47.636-12.093 7.489-.896 15.174-1.344 23.021-1.344 17.406.002 34.085 2.241 49.518 6.353z" fill="#665e66"/><path d="m164.331 333.769c-15.263 12.863-33.662 20.853-51.47 9.638v-.009c.394-9.441.941-18.882 1.621-28.324 6.548-31.1 32.175-57.686 67.978-73.272 1.057-.457 2.123-.914 3.198-1.353 14.484-5.939 30.554-10.104 47.636-12.093 7.489-.896 15.174-1.344 23.021-1.344-49.857 17.397-152.797 106.757-91.984 106.757z" fill="#454045"/><g fill="#454045"><ellipse cx="189.549" cy="366.429" rx="13.012" ry="19.389"/><ellipse cx="323.078" cy="366.429" rx="13.012" ry="19.389"/></g><g><ellipse cx="166.952" cy="413.289" fill="#df9380" rx="24.426" ry="15.489"/><ellipse cx="345.676" cy="413.289" fill="#f9a58e" rx="24.426" ry="15.489"/></g><path d="m399.77 301.88c0 4.918-.466 9.773-1.379 14.511-9.692-50.502-69.6-89.378-142.075-89.378-7.847 0-15.541.448-23.021 1.344-15.998 1.854-31.1 5.625-44.841 10.982-2.024.779-4.022 1.603-5.993 2.463-36.287 15.801-62.138 42.897-68.238 74.544-.905-4.721-1.362-9.558-1.362-14.466 0-37.783 27.894-70.854 69.6-89.002 4.318-1.881 8.787-3.601 13.383-5.142 11.707-3.959 24.275-6.79 37.451-8.321 7.48-.896 15.174-1.335 23.021-1.335 79.228.001 143.454 46.472 143.454 103.8z" fill="#80b4fb"/><path d="m195.843 207.737-7.39 31.602c-2.024.779-4.022 1.603-5.993 2.463-36.287 15.801-62.138 42.897-68.238 74.544-.905-4.721-1.362-9.558-1.362-14.466 0-37.783 27.894-70.854 69.6-89.002 4.318-1.88 8.788-3.6 13.383-5.141z" fill="#5490f9"/><path d="m252.915 459.343c-1.977 0-3.955-.755-5.463-2.263-6.183-6.183-20.146-7.491-25.028-7.438-.015 0-.03 0-.045 0-4.241 0-7.701-3.422-7.733-7.668-.032-4.261 3.384-7.744 7.645-7.784 2.439-.026 24.237.114 36.087 11.964 3.017 3.017 3.017 7.909 0 10.927-1.508 1.507-3.486 2.262-5.463 2.262z" fill="#dd636e"/></g><path d="m124.219 154.353h-94.086c-16.642 0-30.133-13.491-30.133-30.133v-94.086c0-16.642 13.491-30.133 30.133-30.133h94.085c16.642 0 30.133 13.491 30.133 30.133v94.085c.001 16.643-13.49 30.134-30.132 30.134z" fill="#da4a54"/><path d="m51.993 154.352h-21.86c-16.638 0-30.133-13.495-30.133-30.132v-94.087c0-16.637 13.495-30.132 30.133-30.132h21.86c-16.648 0-30.133 13.495-30.133 30.133v94.086c0 16.637 13.485 30.132 30.133 30.132z" fill="#c32430"/><path d="m481.867 154.353h-94.085c-16.642 0-30.133-13.491-30.133-30.133v-94.086c0-16.642 13.491-30.133 30.133-30.133h94.085c16.642 0 30.133 13.491 30.133 30.133v94.085c0 16.643-13.491 30.134-30.133 30.134z" fill="#6ec17d"/><path d="m409.641 154.354h-21.86c-16.638 0-30.133-13.495-30.133-30.133v-94.087c0-16.637 13.495-30.133 30.133-30.133h21.86c-16.648 0-30.133 13.495-30.133 30.133v94.086c0 16.638 13.485 30.134 30.133 30.134z" fill="#5ea570"/><g><g><path d="m256 107.769c-4.267 0-7.726-3.459-7.726-7.726v-24.046c0-4.267 3.459-7.726 7.726-7.726 6.952 0 13.422-2.781 18.216-7.831 4.792-5.047 7.231-11.665 6.869-18.637-.678-13.064-11.468-23.504-24.563-23.768-12.773-.262-23.645 9.03-25.4 21.602-.161 1.155-.243 2.338-.243 3.514 0 4.267-3.459 7.726-7.726 7.726s-7.726-3.459-7.726-7.726c0-1.888.131-3.788.391-5.648 2.837-20.32 20.493-35.316 41.016-34.917 21.157.426 38.589 17.301 39.685 38.417.583 11.246-3.357 21.928-11.096 30.078-5.932 6.247-13.452 10.343-21.696 11.918v17.045c-.001 4.266-3.459 7.725-7.727 7.725z" fill="#80b4fb"/></g><path d="m256 132.933c-4.267 0-7.726-3.459-7.726-7.726v-.515c0-4.267 3.459-7.726 7.726-7.726 4.268 0 7.726 3.459 7.726 7.726v.515c0 4.266-3.458 7.726-7.726 7.726z" fill="#80b4fb"/></g><g fill="#dfeaef"><path d="m88.103 77.177 29.769-29.769c3.018-3.017 3.018-7.909 0-10.927-3.017-3.018-7.909-3.018-10.927 0l-29.769 29.769-29.769-29.768c-3.017-3.018-7.909-3.018-10.927 0-3.018 3.017-3.018 7.909 0 10.927l29.769 29.769-29.769 29.769c-3.018 3.017-3.018 7.909 0 10.927 1.509 1.509 3.486 2.263 5.463 2.263s3.955-.754 5.463-2.263l29.769-29.769 29.769 29.769c1.509 1.509 3.486 2.263 5.463 2.263s3.955-.754 5.463-2.263c3.018-3.017 3.018-7.909 0-10.927z"/><path d="m429.55 126.405c-2.371 0-4.628-1.092-6.099-2.984l-33.285-42.807c-2.619-3.369-2.012-8.223 1.357-10.842 3.368-2.618 8.222-2.013 10.842 1.357l25.94 33.361 38.243-72.423c1.991-3.773 6.664-5.218 10.44-3.224 3.774 1.992 5.217 6.667 3.224 10.44l-43.83 83.004c-1.224 2.32-3.543 3.859-6.157 4.089-.224.019-.45.029-.675.029z"/></g></g></svg>