<svg height="512pt" viewBox="-54 0 512 512" width="512pt" xmlns="http://www.w3.org/2000/svg"><path d="m99.667969 128h294.332031v238h-294.332031zm0 0" fill="#41c0f0"/><path d="m219.125 13.75c-14.089844 6.488281-23.875 20.722656-23.875 37.25s9.785156 30.761719 23.875 37.25c14.089844-6.488281 23.875-20.722656 23.875-37.25s-9.785156-30.761719-23.875-37.25zm0 0" fill="#f29c0b"/><path d="m184 88.332031h36v39.667969h-36zm0 0" fill="#d98325"/><path d="m201.667969 366h18.332031v81.996094h-18.332031zm0 0" fill="#d98325"/><path d="m277.78125 448h-96.667969l-17.226562 54h141.558593l-17.222656-54zm0 0" fill="#165db2"/><path d="m202 0c-28.121094 0-51 22.878906-51 51s22.878906 51 51 51 51-22.878906 51-51-22.878906-51-51-51zm0 82c-17.09375 0-31-13.90625-31-31s13.90625-31 31-31 31 13.90625 31 31-13.90625 31-31 31zm0 0"/><path d="m220 181.03125h138v38h-138zm0 0" fill="#fff"/><path d="m282 181.03125h76v38h-76zm0 0" fill="#165db2"/><path d="m358 229.03125h-138c-5.523438 0-10-4.476562-10-10v-38c0-5.523438 4.476562-10 10-10h138c5.523438 0 10 4.476562 10 10v38c0 5.523438-4.476562 10-10 10zm-128-20h118v-18h-118zm0 0"/><path d="m357.824219 266h-107.164063c-5.523437 0-10-4.476562-10-10s4.476563-10 10-10h107.164063c5.523437 0 10 4.476562 10 10s-4.476563 10-10 10zm0 0"/><path d="m220.132812 266h-.132812c-5.523438 0-10-4.476562-10-10s4.476562-10 10-10h.128906c5.523438 0 10 4.476562 10 10s-4.476562 10-9.996094 10zm0 0"/><path d="m357.824219 309.980469h-107.164063c-5.523437 0-10-4.476563-10-10 0-5.523438 4.476563-10 10-10h107.164063c5.523437 0 10 4.476562 10 10 0 5.523437-4.476563 10-10 10zm0 0"/><path d="m220.132812 309.980469h-.132812c-5.523438 0-10-4.476563-10-10 0-5.523438 4.476562-10 10-10h.128906c5.523438 0 10 4.476562 10 10 0 5.523437-4.476562 10-9.996094 10zm0 0"/><path d="m45.035156 173.167969h140v140h-140zm0 0" fill="#fff"/><path d="m120.183594 288.414062-13.851563-15.308593-10.773437 15.308593-1.769532-1.953124-16.992187 26.707031h79.621094l-22.882813-43.722657zm0 0" fill="#44ad00"/><path d="m132.503906 183.167969h-.164062c-5.523438 0-10-4.476563-10-10 0-5.523438 4.476562-10 10-10h.164062c5.523438 0 10 4.476562 10 10 0 5.523437-4.476562 10-10 10zm0 0"/><path d="m160.730469 214.136719c0 7.730469-6.265625 14-14 14-7.730469 0-14-6.269531-14-14 0-7.734375 6.269531-14 14-14 7.734375 0 14 6.265625 14 14zm0 0" fill="#f29c0b"/><path d="m185.035156 163.167969h-20.5c-5.519531 0-10 4.476562-10 10 0 5.523437 4.480469 10 10 10h10.5v119.996093h-12.566406l-30.574219-58.421874c-1.617187-3.085938-4.726562-5.109376-8.207031-5.339844-3.476562-.230469-6.824219 1.371094-8.832031 4.222656l-20.277344 28.804688-7.832031-8.660157c-2.09375-2.3125-5.140625-3.515625-8.257813-3.253906-3.109375.261719-5.917969 1.964844-7.59375 4.597656l-15.855469 24.921875v-106.867187h44.089844c5.519532 0 10-4.476563 10-10 0-5.523438-4.480468-10-10-10h-54.09375c-5.519531 0-10 4.476562-10 10v139.996093c0 5.523438 4.480469 10 10 10h140c5.523438 0 10-4.476562 10-10v-139.996093c0-5.523438-4.476562-10-10-10zm-104.3125 123.753906 7.417969 8.199219c2.039063 2.253906 4.988281 3.457031 8.023437 3.273437 3.035157-.183593 5.820313-1.738281 7.570313-4.222656l18.039063-25.628906 18.121093 34.625h-69.507812zm0 0"/><path d="m146.730469 238.136719c-13.230469 0-24-10.769531-24-24 0-13.234375 10.769531-24 24-24 13.234375 0 24 10.765625 24 24 0 13.230469-10.765625 24-24 24zm0-28c-2.203125 0-4 1.792969-4 4s1.796875 4 4 4c2.207031 0 4-1.792969 4-4s-1.792969-4-4-4zm0 0"/><path d="m10 244.386719c-5.523438 0-10-4.476563-10-10v-.101563c0-5.523437 4.476562-10 10-10s10 4.476563 10 10v.101563c0 5.523437-4.476562 10-10 10zm0 0"/><path d="m394 118h-164v-29.667969c0-5.523437-4.476562-10-10-10s-10 4.476563-10 10v29.667969h-16v-29.667969c0-5.523437-4.476562-10-10-10s-10 4.476563-10 10v29.667969h-164c-5.523438 0-10 4.476562-10 10v81.925781c0 5.523438 4.476562 10 10 10s10-4.476562 10-10v-71.925781h364v218h-364v-96.480469c0-5.523437-4.476562-10-10-10s-10 4.476563-10 10v106.480469c0 5.523438 4.476562 10 10 10h164v62h-58.21875c-4.351562 0-8.207031 2.8125-9.527344 6.960938l-17.226562 54c-.96875 3.042968-.429688 6.363281 1.453125 8.9375 1.882812 2.578124 4.882812 4.101562 8.074219 4.101562h206.890624c3.191407 0 6.191407-1.523438 8.074219-4.101562 1.882813-2.578126 2.425781-5.898438 1.453125-8.9375l-17.226562-54c-1.320313-4.148438-5.171875-6.960938-9.523438-6.960938h-58.222656v-62h164c5.523438 0 10-4.476562 10-10v-238c0-5.523438-4.476562-10-10-10zm-102.238281 374h-179.523438l10.847657-34h157.828124zm-81.761719-54h-16v-62h16zm0 0"/></svg>