<svg height="512pt" viewBox="-76 0 511 512" width="512pt" xmlns="http://www.w3.org/2000/svg"><path d="m90.578125 36.574219h178.042969v72.25h-178.042969zm0 0" fill="#e0e0e2"/><path d="m351.199219 59.039062h-82.578125v49.785157h-178.042969v-49.785157h-82.578125v445.460938h343.199219zm0 0" fill="#ffb655"/><path d="m347.324219 86.699219h-48.703125v22.125h-178.042969v-22.125h-48.703125v385.632812h212.277344l63.171875-63.171875zm0 0" fill="#ff7956"/><path d="m317.324219 86.699219h-48.703125v22.125h-178.042969v-22.125h-48.703125v385.632812h212.277344l63.171875-63.171875zm0 0" fill="#fff"/><path d="m209.597656 153.585938c-58.75 0-106.660156 46.390624-109.113281 104.539062-.0625 1.554688-.105469 3.113281-.105469 4.679688 0 60.320312 48.898438 109.21875 109.222656 109.21875 31.347657 0 59.609376-13.210938 79.53125-34.367188 18.402344-19.550781 29.6875-45.882812 29.6875-74.851562 0-60.320313-48.898437-109.21875-109.222656-109.21875zm0 175.105468c-36.386718 0-65.886718-29.5-65.886718-65.886718 0-1.574219.074218-3.132813.183593-4.679688 2.40625-34.203125 30.890625-61.207031 65.707031-61.207031 36.386719 0 65.886719 29.5 65.886719 65.886719 0 17.003906-6.445312 32.5-17.019531 44.1875-12.058594 13.324218-29.484375 21.699218-48.871094 21.699218zm0 0" fill="#e0e0e2"/><path d="m254.152344 472.332031 63.171875-63.171875h-63.171875zm0 0" fill="#c6c5ca"/><path d="m179.597656 196.917969v-43.332031c-58.75 0-106.660156 46.390624-109.113281 104.539062h43.410156c2.402344-34.203125 30.890625-61.207031 65.703125-61.207031zm0 0" fill="#ffe477"/><path d="m179.597656 153.585938v43.332031c36.390625 0 65.886719 29.496093 65.886719 65.886719 0 17.003906-6.441406 32.5-17.015625 44.1875l30.660156 30.664062c18.40625-19.550781 29.691406-45.882812 29.691406-74.851562 0-60.320313-48.898437-109.21875-109.222656-109.21875zm0 0" fill="#b6e892"/><path d="m179.597656 328.691406c-36.386718 0-65.886718-29.5-65.886718-65.886718 0-1.574219.074218-3.132813.183593-4.679688h-43.410156c-.0625 1.554688-.105469 3.113281-.105469 4.679688 0 60.320312 48.898438 109.21875 109.222656 109.21875 31.347657 0 59.609376-13.210938 79.53125-34.367188l-30.664062-30.664062c-12.058594 13.324218-29.484375 21.699218-48.871094 21.699218zm0 0" fill="#ff7956"/><path d="m90.578125 36.574219h30v72.25h-30zm0 0" fill="#c6c5ca"/><path d="m268.621094 59.039062h30v49.785157h-30zm0 0" fill="#ff7956"/><path d="m8 59.039062h30v445.460938h-30zm0 0" fill="#ff7956"/><path d="m268.621094 86.699219h30v22.125h-30zm0 0" fill="#e0e0e2"/><path d="m41.875 86.699219h30v385.636719h-30zm0 0" fill="#e0e0e2"/><path d="m284.152344 409.160156h-30v63.171875l30-30zm0 0" fill="#898890"/><path d="m179.597656 157.757812v-4.171874c-58.75 0-106.660156 46.390624-109.113281 104.539062h30c2.019531-47.851562 34.820313-87.742188 79.113281-100.367188zm0 0" fill="#ffb655"/><path d="m258.46875 306.992188c10.574219-11.6875 17.015625-27.183594 17.015625-44.1875 0-36.390626-29.496094-65.886719-65.886719-65.886719v-39.160157c-9.53125-2.71875-19.59375-4.171874-30-4.171874v43.332031c36.390625 0 65.886719 29.5 65.886719 65.886719 0 17.003906-6.441406 32.5-17.015625 44.1875l30.660156 30.664062c4.886719-5.1875 9.269532-10.855469 13.074219-16.925781zm0 0" fill="#4cba68"/><path d="m209.597656 328.691406c11.691406 0 22.667969-3.042968 32.183594-8.382812l-13.3125-13.316406c-8.847656 9.78125-20.585938 16.890624-33.871094 19.984374 4.820313 1.121094 9.839844 1.714844 15 1.714844zm0 0" fill="#ff3f62"/><path d="m100.378906 262.804688c0-1.566407.039063-3.125.105469-4.679688h-30c-.066406 1.554688-.105469 3.113281-.105469 4.679688 0 60.320312 48.898438 109.21875 109.21875 109.21875 5.089844 0 10.097656-.347657 15-1.019532-53.222656-7.3125-94.21875-52.96875-94.21875-108.199218zm0 0" fill="#ff3f62"/><path d="m153.933594 246.101562h-15.53125v15h5.753906v27.910157l9.007812 9.007812h52.867188l9.007812-9.007812v-27.910157h5.757813v-15h-15.535156l-12.226563-27.652343-13.4375 5.941406-13.4375-5.941406zm27.363281 15v21.917969h-3.394531v-21.917969zm-22.140625 21.695313v-21.695313h3.746094v21.917969h-3.523438zm40.882812 0-.21875.222656h-3.523437v-21.917969h3.742187zm-29.703124-36.695313 9.261718-20.953124 9.265625 20.953124zm0 0"/><path d="m276.121094 29.074219h-74.484375v-7.039063c0-12.148437-9.886719-22.035156-22.039063-22.035156-12.148437 0-22.035156 9.886719-22.035156 22.035156v7.039063h-74.484375v87.25h193.042969zm-103.558594-7.039063c0-3.878906 3.15625-7.035156 7.035156-7.035156 3.882813 0 7.039063 3.15625 7.039063 7.035156v7.039063h-14.074219zm88.558594 79.289063h-163.042969v-11h43.339844v-15h-43.339844v-31.25h163.042969zm0 0"/><path d="m288.621094 51.539062v15h55.078125v430.460938h-328.199219v-430.460938h55.078125v-15h-70.078125v460.460938h358.199219v-460.460938zm0 0"/><path d="m309.824219 406.054688-48.171875 48.171874v-37.566406h32.671875v-15h-47.671875v63.171875h-197.277344v-15h49.277344v-15h-49.277344v-340.632812h21.203125v-15h-36.203125v400.632812h222.882812l67.566407-67.5625v-333.070312h-36.203125v15h21.203125zm0 0"/><path d="m160.964844 162.785156-2.730469-14.75c-25.632813 4.746094-49.25 18.21875-66.503906 37.945313-17.421875 19.910156-27.625 45.417969-28.738281 71.828125l-.332032 7.816406h58.226563l.492187-6.976562c1.65625-23.617188 17.933594-44.3125 40.496094-51.496094l-4.550781-14.292969c-26.121094 8.316406-45.535157 31.035156-50.074219 57.765625h-28.632812c5.285156-43.484375 38.824218-79.785156 82.347656-87.839844zm0 0"/><path d="m78.871094 277.082031-14.855469 2.085938c3.875 27.609375 17.613281 52.984375 38.683594 71.449219 21.273437 18.640624 48.582031 28.90625 76.898437 28.90625 32.507813 0 62.691406-13.042969 84.992188-36.726563l4.988281-5.300781-41.382813-41.382813-5.292968 5.847657c-11.054688 12.222656-26.839844 19.230468-43.304688 19.230468-27.160156 0-50.519531-18.425781-56.800781-44.804687l-14.59375 3.476562c7.898437 33.164063 37.257813 56.328125 71.394531 56.328125 18.058594 0 35.464844-6.707031 48.839844-18.621094l20.0625 20.0625c-18.8125 17.394532-43.011719 26.890626-68.902344 26.890626-50.425781 0-93.726562-37.589844-100.726562-87.441407zm0 0"/><path d="m296.320312 262.804688c0-64.359376-52.359374-116.71875-116.722656-116.71875h-7.5v58.332031h7.5c32.195313 0 58.386719 26.191406 58.386719 58.386719 0 8.375-1.730469 16.457031-5.148437 24.015624l13.667968 6.179688c4.300782-9.515625 6.480469-19.671875 6.480469-30.195312 0-37.933594-28.929687-69.238282-65.886719-73.007813v-28.4375c52.601563 3.851563 94.222656 47.878906 94.222656 101.445313 0 19.558593-5.5625 38.546874-16.089843 54.921874l12.617187 8.109376c12.085938-18.796876 18.472656-40.59375 18.472656-63.03125zm0 0"/><g fill="#fff"><path d="m250.121094 67.457031h-41.867188v-15h41.867188zm-51.867188 0h-15v-15h15zm-25 0h-15v-15h15zm0 0"/><path d="m263.324219 309.238281-13.113281-7.285156c6.613281-11.898437 10.109374-25.4375 10.109374-39.148437 0-20.871094-7.972656-40.683594-22.441406-55.792969l10.832032-10.375c17.160156 17.914062 26.609374 41.414062 26.609374 66.167969 0 16.257812-4.148437 32.3125-11.996093 46.433593zm-32.136719-108.472656c-3.515625-2.925781-7.296875-5.570313-11.238281-7.855469l7.519531-12.976562c4.675781 2.707031 9.15625 5.839844 13.316406 9.308594zm-19.398438-11.984375c-4.183593-1.828125-8.550781-3.304688-12.976562-4.386719l3.570312-14.570312c5.253907 1.289062 10.4375 3.039062 15.40625 5.207031zm0 0"/></g></svg>