<?xml version="1.0" encoding="iso-8859-1"?>
<!-- Generator: Adobe Illustrator 19.0.0, SVG Export Plug-In . SVG Version: 6.00 Build 0)  -->
<svg version="1.1" id="Layer_1" xmlns="http://www.w3.org/2000/svg" xmlns:xlink="http://www.w3.org/1999/xlink" x="0px" y="0px"
	 viewBox="0 0 511.986 511.986" style="enable-background:new 0 0 511.986 511.986;" xml:space="preserve">
<path style="fill:#ED5564;" d="M490.642,234.65H21.336c-5.89,0-10.671,4.78-10.671,10.671v255.992
	c0,5.891,4.781,10.672,10.671,10.672h469.307c5.891,0,10.672-4.781,10.672-10.672V245.321
	C501.314,239.431,496.533,234.65,490.642,234.65z"/>
<path style="fill:#FFCE54;" d="M298.648,362.645H213.33c-5.891,0-10.672,4.781-10.672,10.672v127.996
	c0,5.891,4.781,10.672,10.672,10.672h85.318c5.891,0,10.672-4.781,10.672-10.672V373.317
	C309.32,367.427,304.539,362.645,298.648,362.645z"/>
<g>
	<path style="fill:#4FC2E9;" d="M159.996,447.987H74.662c-5.891,0-10.664-4.781-10.664-10.672V351.99
		c0-29.421,23.921-53.343,53.334-53.343c29.405,0,53.326,23.922,53.326,53.343v85.325
		C170.66,443.206,165.887,447.987,159.996,447.987z"/>
	<path style="fill:#4FC2E9;" d="M437.316,447.987h-85.325c-5.891,0-10.672-4.781-10.672-10.672V351.99
		c0-29.421,23.921-53.343,53.327-53.343c29.42,0,53.342,23.922,53.342,53.343v85.325
		C447.988,443.206,443.207,447.987,437.316,447.987z"/>
</g>
<path style="fill:#DA4453;" d="M298.648,341.318H213.33c-5.891,0-10.672-4.78-10.672-10.671s4.781-10.656,10.672-10.656h85.318
	c5.891,0,10.672,4.766,10.672,10.656S304.539,341.318,298.648,341.318z"/>
<path style="fill:#F6BB42;" d="M507.236,193.776l-63.998-42.655c-1.75-1.172-3.812-1.797-5.922-1.797H74.662
	c-2.102,0-4.164,0.625-5.914,1.797L4.75,193.776c-3.914,2.609-5.656,7.469-4.289,11.968c1.359,4.5,5.508,7.578,10.203,7.578h490.65
	c4.703,0,8.844-3.078,10.203-7.578C512.892,201.245,511.142,196.386,507.236,193.776z"/>
<g>
	<path style="fill:#F5F7FA;" d="M117.333,298.647c-29.414,0-53.334,23.922-53.334,53.343H170.66
		C170.66,322.569,146.739,298.647,117.333,298.647z"/>
	<path style="fill:#F5F7FA;" d="M394.646,298.647c-29.406,0-53.327,23.922-53.327,53.343h106.669
		C447.988,322.569,424.066,298.647,394.646,298.647z"/>
</g>
<path style="fill:#434A54;" d="M245.329,437.315c0,5.891-4.781,10.672-10.671,10.672c-5.891,0-10.664-4.781-10.664-10.672
	s4.773-10.671,10.664-10.671C240.548,426.644,245.329,431.425,245.329,437.315z"/>
<path style="fill:#ED5564;" d="M330.648,170.652H181.331c-5.891,0-10.672-4.766-10.672-10.656V10.656
	c0-5.891,4.781-10.655,10.672-10.655h149.317c5.891,0,10.671,4.765,10.671,10.655v149.34
	C341.319,165.887,336.539,170.652,330.648,170.652z"/>
<g>
	<path style="fill:#CCD1D9;" d="M282.665,85.779c-9.5,0-18.351-5.109-23.101-13.328c-7.352-12.733-2.978-29.077,9.758-36.421
		c4.046-2.343,8.655-3.577,13.312-3.577c9.515,0,18.358,5.108,23.108,13.327c7.359,12.734,2.984,29.077-9.75,36.437
		C291.93,84.545,287.336,85.779,282.665,85.779z M282.634,53.78c-0.938,0-1.828,0.25-2.641,0.719
		c-2.547,1.469-3.422,4.734-1.953,7.281c0.953,1.672,2.688,2.672,4.625,2.672c0.938,0,1.828-0.234,2.656-0.719
		c2.546-1.469,3.421-4.734,1.952-7.281C286.305,54.78,284.571,53.78,282.634,53.78z"/>
	<path style="fill:#CCD1D9;" d="M213.33,117.778c-4.094,0-8-2.375-9.766-6.359c-2.375-5.391,0.07-11.687,5.461-14.062l76.983-33.952
		c5.39-2.375,11.687,0.062,14.077,5.453c2.375,5.39-0.078,11.687-5.469,14.062l-76.99,33.952
		C216.229,117.497,214.768,117.778,213.33,117.778z"/>
</g>
<g>
	<path style="fill:#E6E9ED;" d="M282.634,139.105L282.634,139.105c-4.656,0-9.266-1.234-13.312-3.562
		c-12.735-7.359-17.11-23.703-9.758-36.437c4.75-8.219,13.601-13.328,23.101-13.328c4.671,0,9.265,1.234,13.327,3.578
		c12.734,7.344,17.109,23.687,9.75,36.421C300.992,133.997,292.148,139.105,282.634,139.105z M282.665,107.106
		c-1.938,0-3.672,1-4.625,2.672c-1.469,2.547-0.594,5.812,1.953,7.281c0.812,0.484,1.703,0.719,2.641,0.719
		c1.938,0,3.672-1,4.64-2.672c1.469-2.547,0.594-5.812-1.952-7.281C284.493,107.356,283.602,107.106,282.665,107.106z"/>
	<path style="fill:#E6E9ED;" d="M290.32,109.059c-1.438,0-2.906-0.281-4.312-0.906l-76.983-33.952
		c-5.391-2.375-7.835-8.671-5.461-14.062c2.383-5.391,8.68-7.828,14.07-5.453l76.982,33.952c5.391,2.375,7.844,8.672,5.469,14.062
		C298.32,106.684,294.414,109.059,290.32,109.059z"/>
</g>
<path style="fill:#434A54;" d="M501.314,511.985H10.664C4.773,511.985,0,507.204,0,501.313s4.773-10.671,10.664-10.671h490.65
	c5.891,0,10.672,4.78,10.672,10.671S507.205,511.985,501.314,511.985z"/>
<path style="fill:#FFCE54;" d="M501.314,191.995H10.664C4.773,191.995,0,196.761,0,202.651v61.139c0,3.812,2.031,7.328,5.328,9.233
	c4.852,2.812,10.391,4.297,16.007,4.297c8.188,0,15.664-3.094,21.328-8.171c5.672,5.077,13.148,8.171,21.335,8.171
	s15.664-3.094,21.335-8.171c5.664,5.077,13.141,8.171,21.328,8.171c8.188,0,15.671-3.094,21.335-8.171
	c5.664,5.077,13.148,8.171,21.335,8.171s15.664-3.094,21.327-8.171c5.672,5.077,13.148,8.171,21.335,8.171
	c8.188,0,15.664-3.094,21.335-8.171c5.664,5.077,13.14,8.171,21.328,8.171c8.187,0,15.671-3.094,21.335-8.171
	c5.665,5.077,13.149,8.171,21.328,8.171c8.188,0,15.671-3.094,21.327-8.171c5.672,5.077,13.156,8.171,21.344,8.171
	s15.672-3.094,21.327-8.171c5.672,5.077,13.14,8.171,21.327,8.171s15.672-3.094,21.344-8.171c5.656,5.077,13.141,8.171,21.327,8.171
	c8.188,0,15.672-3.094,21.327-8.171c5.672,5.077,13.156,8.171,21.344,8.171s15.672-3.094,21.328-8.171
	c5.671,5.077,13.14,8.171,21.326,8.171c5.625,0,11.156-1.484,16.016-4.297c3.297-1.905,5.328-5.421,5.328-9.233v-61.139
	C511.986,196.761,507.205,191.995,501.314,191.995z"/>
<g>
</g>
<g>
</g>
<g>
</g>
<g>
</g>
<g>
</g>
<g>
</g>
<g>
</g>
<g>
</g>
<g>
</g>
<g>
</g>
<g>
</g>
<g>
</g>
<g>
</g>
<g>
</g>
<g>
</g>
</svg>
