<svg id="Filled" height="512" viewBox="0 0 512 512" width="512" xmlns="http://www.w3.org/2000/svg"><path d="m152 24h64v32h-64z" fill="#eb423f"/><path d="m160 56-11.376 153.14a72.045 72.045 0 0 0 -36.624 62.86v216h144v-216a72.045 72.045 0 0 0 -36.624-62.859l-11.376-153.141z" fill="#2e9163"/><path d="m256 272v216h-144v-216a72.056 72.056 0 0 1 36.62-62.86l4.84-65.14h61.08l4.84 65.14a72.056 72.056 0 0 1 36.62 62.86z" fill="#3dc285"/><path d="m384 488h-64l-16-112h96z" fill="#dcdee0"/><path d="m388.57 456-4.57 32h-64l-4.57-32z" fill="#c3c6c7"/><path d="m112 288h144v128h-144z" fill="#dcdee0"/><path d="m104 488a8 8 0 0 0 8 8h144a8 8 0 0 0 8-8v-216a80.259 80.259 0 0 0 -36.953-67.581l-10.433-140.45a7.994 7.994 0 0 0 7.386-7.969v-32a8 8 0 0 0 -8-8h-64a8 8 0 0 0 -8 8v32a7.994 7.994 0 0 0 7.386 7.969l-10.433 140.45a80.259 80.259 0 0 0 -36.953 67.581zm16-8v-56h128v56zm0-72v-112h128v112zm85.921-272h-43.842l5.349-72h33.144zm-45.921-104h48v16h-48zm-7.447 184.109a8 8 0 0 0 4.049-6.376l4.289-57.733h46.218l4.289 57.733a8 8 0 0 0 4.049 6.376 64.2 64.2 0 0 1 32.553 55.891v8h-128v-8a64.2 64.2 0 0 1 32.553-55.891z"/><path d="m304 368a8 8 0 0 0 -7.919 9.131l16 112a8 8 0 0 0 7.919 6.869h64a8 8 0 0 0 7.919-6.869l16-112a8 8 0 0 0 -7.919-9.131zm86.776 16-9.143 64h-59.266l-9.143-64zm-63.838 96-2.285-16h54.694l-2.285 16z"/></svg>