<svg height="512pt" viewBox="0 0 512.00158 512" width="512pt" xmlns="http://www.w3.org/2000/svg"><path d="m486.402344 162.132812-.003906 323.765626c.109374 9.554687-7.515626 17.402343-17.066407 17.570312h-426.664062c-9.550781-.167969-17.175781-8.015625-17.066407-17.570312l-.003906-323.765626zm0 0" fill="#dfc49c"/><path d="m460.800781 162.132812v323.765626c.355469 9.289062-6.835937 17.125-16.121093 17.570312h-402.960938c-9.28125-.445312-16.472656-8.28125-16.117188-17.570312v-323.765626zm0 0" fill="#ffe0b2"/><path d="m42.667969 34.132812h426.664062v59.734376h-426.664062zm0 0" fill="#bb193b"/><path d="m44.636719 34.132812h397.128906v59.734376h-397.128906zm0 0" fill="#ef314c"/><path d="m307.199219 238.933594v204.800781h-238.933594v-204.800781c.015625-4.707032 3.828125-8.519532 8.535156-8.53125h221.867188c4.707031.011718 8.519531 3.824218 8.53125 8.53125zm0 0" fill="#0377bc"/><path d="m281.601562 238.933594v204.800781h-213.335937v-204.800781c.015625-4.707032 3.828125-8.519532 8.535156-8.53125h196.265625c4.707032.011718 8.519532 3.824218 8.535156 8.53125zm0 0" fill="#02a9f4"/><path d="m272.382812 302.679688-10.152343 23.636718c-1.527344 3.847656-5.820313 5.804688-9.730469 4.4375l-11.175781-3.242187c-1.859375-.578125-3.859375-.457031-5.632813.339843h-.085937c-1.421875.609376-2.65625 1.578126-3.585938 2.816407-1.0625 1.460937-1.632812 3.226562-1.621093 5.035156v65.875c.167968 4.234375-3.105469 7.8125-7.335938 8.023437h-70.65625c-4.203125-.199218-7.472656-3.730468-7.339844-7.9375v-65.960937c.011719-2.691406-1.25-5.226563-3.402344-6.839844-2.152343-1.617187-4.941406-2.117187-7.519531-1.351562l-11.179687 3.242187c-1.65625.613282-3.484375.582032-5.121094-.085937-1.519531-.425781-2.808594-1.4375-3.582031-2.816407h-.085938c-.375-.472656-.6875-.988281-.9375-1.535156l-10.15625-23.636718c-1.636719-3.707032-.332031-8.050782 3.074219-10.242188l49.917969-25.085938 4.011719-2.050781c2.4375-.875 5.085937-.996093 7.59375-.339843 2.476562.597656 4.863281 1.195312 7.253906 1.535156 6.222656 1.089844 12.5625 1.378906 18.859375.855468 4.730469-.355468 9.414062-1.152343 13.992187-2.390624 2.507813-.65625 5.15625-.535157 7.597656.339843l53.929688 27.136719c3.40625 2.191406 4.707031 6.535156 3.070312 10.242188zm0 0" fill="#6a1b9a"/><path d="m256 281.601562-19.371094 44.714844c-.25.546875-.5625 1.0625-.9375 1.535156h-.085937c-.773438 1.378907-2.0625 2.390626-3.585938 2.816407-1.632812.667969-3.460937.699219-5.117187.085937l-11.179688-3.242187c-2.578125-.765625-5.367187-.265625-7.519531 1.351562-2.152344 1.613281-3.414063 4.148438-3.402344 6.839844v65.875c.167969 4.234375-3.109375 7.8125-7.339843 8.023437h-45.054688c-4.203125-.199218-7.472656-3.730468-7.339844-7.9375v-65.960937c.011719-2.691406-1.25-5.226563-3.402344-6.839844-2.152343-1.617187-4.941406-2.117187-7.519531-1.351562l-11.179687 3.242187c-1.65625.613282-3.484375.582032-5.121094-.085937-.925781-1.238281-2.160156-2.207031-3.582031-2.816407h-.085938c-.375-.472656-.6875-.988281-.9375-1.535156l-10.15625-23.636718c-1.636719-3.707032-.332031-8.050782 3.074219-10.242188l49.917969-25.085938c6.296875.523438 12.636719.234376 18.859375-.855468 2.390625-.339844 4.777344-.9375 7.253906-1.535156 2.507812-.65625 5.15625-.535157 7.59375.339843l4.011719 2.050781 28.074219-2.816406c3.414062 2.132813 35.753906 13.394532 34.132812 17.066406zm0 0" fill="#9d27b0"/><path d="m34.132812 8.535156h443.734376c4.710937 0 8.53125 3.820313 8.53125 8.53125v17.066406c0 4.714844-3.820313 8.535157-8.53125 8.535157h-443.734376c-4.710937 0-8.53125-3.820313-8.53125-8.535157v-17.066406c0-4.710937 3.820313-8.53125 8.53125-8.53125zm0 0" fill="#c81e1e"/><path d="m34.132812 8.535156h418.132813c4.714844 0 8.535156 3.820313 8.535156 8.53125v17.066406c0 4.714844-3.820312 8.535157-8.535156 8.535157h-418.132813c-4.710937 0-8.53125-3.820313-8.53125-8.535157v-17.066406c0-4.710937 3.820313-8.53125 8.53125-8.53125zm0 0" fill="#f44335"/><path d="m503.464844 128-34.132813-42.664062h-426.664062l-34.132813 42.664062" fill="#c81e1e"/><path d="m477.867188 128-36.105469-42.664062h-397.125l-36.101563 42.664062" fill="#f44335"/><path d="m409.601562 128h93.863282v34.414062c-.019532 4.503907-3.535156 8.21875-8.027344 8.488282-33.433594 2.054687-36.097656 16.832031-74.496094 16.832031-41.265625 0-41.265625-17.066406-82.527344-17.066406-41.234374 0-41.234374 17.066406-82.472656 17.066406-41.234375 0-41.246094-17.066406-82.496094-17.066406-41.230468 0-41.230468 17.066406-82.464843 17.066406-38.355469 0-41.023438-14.777344-74.417969-16.832031-4.492188-.269532-8.007812-3.984375-8.027344-8.488282v-34.414062zm0 0" fill="#c81e1e"/><path d="m486.398438 486.402344v-256h-119.464844c-9.425782 0-17.066406 7.640625-17.066406 17.066406v256h119.464843c9.425781 0 17.066407-7.640625 17.066407-17.066406zm0 0" fill="#f44335"/><path d="m486.398438 230.402344v256c-.027344 9.414062-7.652344 17.039062-17.066407 17.066406h-25.597656c9.414063-.027344 17.039063-7.652344 17.066406-17.066406v-256zm0 0" fill="#c81e1e"/><path d="m486.398438 264.535156v68.265625h-93.863282c-4.710937-.011719-8.523437-3.824219-8.535156-8.535156v-51.199219c.011719-4.707031 3.824219-8.519531 8.535156-8.53125zm0 0" fill="#0377bc"/><path d="m460.800781 264.535156v68.265625h-68.265625c-4.710937-.011719-8.523437-3.824219-8.535156-8.535156v-51.199219c.011719-4.707031 3.824219-8.519531 8.535156-8.53125zm0 0" fill="#02a9f4"/><path d="m187.734375 307.199219c-26.285156 0-25.6875-39.25-25.601563-42.496094 1.847657-.296875 3.734376-.210937 5.546876.257813 13.140624 3.5 26.96875 3.5 40.105468 0 1.8125-.46875 3.703125-.554688 5.546875-.257813.085938 3.246094.683594 42.496094-25.597656 42.496094zm0 0" fill="#37474f"/><path d="m187.734375 315.734375c-7.980469.128906-15.65625-3.042969-21.21875-8.765625-12.988281-13.328125-13.035156-37.726562-12.910156-42.484375.207031-4.671875 4.070312-8.34375 8.746093-8.316406 4.710938.121093 8.433594 4.035156 8.316407 8.75-.1875 7.367187 1.257812 23.140625 8.074219 30.140625 5.03125 4.8125 12.960937 4.8125 17.992187 0 6.816406-6.996094 8.261719-22.773438 8.074219-30.140625-.117188-4.710938 3.601562-8.628907 8.3125-8.75 4.65625.023437 8.488281 3.667969 8.746094 8.316406.125 4.757813.074218 29.15625-12.914063 42.484375-5.5625 5.722656-13.238281 8.894531-21.21875 8.765625zm0 0"/><path d="m223.0625 418.132812h-70.65625c-8.925781-.175781-16.027344-7.542968-15.871094-16.46875v-65.996093l-11.164062 3.273437c-8.097656 2.625-16.84375-1.46875-20.019532-9.367187l-10.109374-23.53125c-3.300782-7.574219-.589844-16.417969 6.386718-20.84375l54.621094-27.523438c.265625-.132812.542969-.25.820312-.359375 4.039063-1.46875 8.421876-1.695312 12.59375-.65625 11.800782 3.191406 24.234376 3.199219 36.039063.023438 4.199219-1.078125 8.625-.859375 12.691406.632812.28125.109375.554688.226563.824219.359375l53.929688 27.136719c7.378906 4.296875 10.40625 13.417969 7.0625 21.273438l-10.136719 23.601562c-3.308594 7.980469-12.28125 11.980469-20.429688 9.105469l-10.710937-3.125v65.910156c.171875 8.949219-6.925782 16.351563-15.871094 16.554687zm-69.460938-17.066406h68.265626v-65.398437c0-5.375 2.535156-10.4375 6.835937-13.660157 4.300781-3.222656 9.871094-4.234374 15.03125-2.726562l10.859375 3.191406 9.863281-22.972656-52.371093-26.308594c-.765626-.152344-1.558594-.128906-2.316407.066406-14.476562 3.832032-29.699219 3.820313-44.171875-.023437-.726562-.1875-1.488281-.203125-2.21875-.042969l-52.359375 26.34375 9.855469 22.949219 10.847656-3.199219c5.160156-1.511718 10.730469-.503906 15.035156 2.71875 4.304688 3.222656 6.839844 8.285156 6.84375 13.664063zm100.746094-78.015625v.007813zm-133.273437-.109375.003906.007813zm-.871094-.253906-.09375.023438zm-10.1875-22.644531-.027344.015625zm0 0"/><path d="m477.867188 51.199219h-443.734376c-9.421874-.007813-17.054687-7.644531-17.066406-17.066407v-17.066406c.011719-9.421875 7.644532-17.0546872 17.066406-17.066406h443.734376c9.421874.0117188 17.054687 7.644531 17.066406 17.066406v17.066406c-.011719 9.421876-7.644532 17.058594-17.066406 17.066407zm-443.734376-34.132813v17.066406h443.746094l-.011718-17.066406zm0 0"/><path d="m469.332031 93.867188h-426.664062c-4.714844 0-8.535157-3.820313-8.535157-8.53125v-42.667969c0-4.714844 3.820313-8.535157 8.535157-8.535157h426.664062c4.714844 0 8.535157 3.820313 8.535157 8.535157v42.667969c0 4.710937-3.820313 8.53125-8.535157 8.53125zm-418.132812-17.066407h409.601562v-25.601562h-409.601562zm0 0"/><path d="m8.535156 136.535156c-3.28125-.003906-6.269531-1.886718-7.691406-4.839844-1.417969-2.957031-1.015625-6.46875 1.035156-9.027343l34.132813-42.667969c1.90625-2.378906 4.933593-3.5625 7.949219-3.101562 3.015624.457031 5.554687 2.492187 6.664062 5.332031 1.109375 2.839843.617188 6.054687-1.289062 8.4375l-34.132813 42.667969c-1.621094 2.023437-4.074219 3.199218-6.667969 3.199218zm0 0"/><path d="m503.472656 136.535156c-2.597656.003906-5.050781-1.171875-6.667968-3.199218l-34.132813-42.667969c-2.945313-3.679688-2.351563-9.050781 1.328125-11.996094s9.050781-2.351563 11.996094 1.328125l34.132812 42.667969c2.050782 2.558593 2.453125 6.070312 1.03125 9.027343-1.417968 2.953126-4.40625 4.835938-7.6875 4.839844zm0 0"/><path d="m420.941406 196.265625c-15.347656.371094-30.578125-2.769531-44.527344-9.183594-11.894531-5.511719-24.898437-8.210937-38-7.882812-13.097656-.328125-26.09375 2.371093-37.976562 7.882812-13.9375 6.414063-29.15625 9.554688-44.496094 9.183594-15.339844.371094-30.566406-2.769531-44.507812-9.183594-11.886719-5.511719-24.886719-8.207031-37.988282-7.882812-13.09375-.328125-26.089843 2.371093-37.972656 7.882812-13.9375 6.414063-29.15625 9.554688-44.492187 9.183594-15.335938.371094-30.554688-2.769531-44.488281-9.183594-9.578126-4.453125-19.910157-7.054687-30.453126-7.664062-8.996093-.550781-16.0117182-7.992188-16.039062-17v-34.417969c0-4.710938 3.820312-8.53125 8.535156-8.53125h366.929688c4.714844 0 8.535156 3.820312 8.535156 8.53125 0 4.714844-3.820312 8.535156-8.535156 8.535156h-358.398438v25.882813c12.441406.667969 24.640625 3.6875 35.953125 8.898437 11.878907 5.515625 24.867188 8.210938 37.960938 7.882813 13.09375.328125 26.089843-2.367188 37.972656-7.882813 13.9375-6.410156 29.15625-9.550781 44.492187-9.183594 15.34375-.367187 30.570313 2.773438 44.511719 9.183594 11.886719 5.515625 24.886719 8.210938 37.984375 7.882813 13.097656.328125 26.089844-2.367188 37.972656-7.882813 13.941407-6.410156 29.160157-9.550781 44.5-9.183594 15.347657-.367187 30.574219 2.773438 44.523438 9.183594 11.894531 5.515625 24.898438 8.210938 38.003906 7.882813 13.105469.328125 26.109375-2.367188 38.003906-7.882813 11.324219-5.207031 23.523438-8.238281 35.96875-8.933594l.019532-25.847656h-85.332032c-4.714843 0-8.535156-3.820312-8.535156-8.535156 0-4.710938 3.820313-8.53125 8.535156-8.53125h93.863282c4.714844 0 8.535156 3.820312 8.535156 8.53125v34.417969c-.027344 9.011719-7.046875 16.453125-16.042969 17-10.554687.609375-20.902343 3.210937-30.492187 7.664062-13.945313 6.414063-29.175782 9.554688-44.523438 9.183594zm0 0"/><path d="m469.332031 512h-426.664062c-14.132813-.015625-25.585938-11.46875-25.601563-25.597656v-314.539063c0-4.714843 3.820313-8.535156 8.535156-8.535156 4.710938 0 8.53125 3.820313 8.53125 8.535156v314.539063c.003907 4.710937 3.824219 8.527344 8.535157 8.53125h426.664062c4.710938-.003906 8.53125-3.820313 8.535157-8.53125v-314.539063c0-4.714843 3.820312-8.535156 8.53125-8.535156 4.714843 0 8.535156 3.820313 8.535156 8.535156v314.539063c-.015625 14.128906-11.46875 25.582031-25.601563 25.597656zm0 0"/><path d="m307.199219 452.265625h-238.933594c-4.710937 0-8.53125-3.820313-8.53125-8.53125v-204.800781c.011719-9.421875 7.644531-17.054688 17.066406-17.066406h221.867188c9.417969.011718 17.054687 7.644531 17.066406 17.066406v204.800781c0 4.710937-3.820313 8.53125-8.535156 8.53125zm-230.398438-17.066406h221.867188v-196.265625h-221.867188zm0 0"/><path d="m315.734375 452.265625h-256c-4.714844 0-8.535156-3.820313-8.535156-8.53125 0-4.714844 3.820312-8.535156 8.535156-8.535156h256c4.710937 0 8.53125 3.820312 8.53125 8.535156 0 4.710937-3.820313 8.53125-8.53125 8.53125zm0 0"/><path d="m469.332031 512h-119.464843c-4.714844 0-8.535157-3.820312-8.535157-8.53125v-256c.015625-14.132812 11.46875-25.585938 25.601563-25.601562h119.464844c4.714843 0 8.535156 3.820312 8.535156 8.535156v256c0 4.710937-3.820313 8.53125-8.535156 8.53125-4.710938 0-8.53125-3.820313-8.53125-8.53125v-247.46875h-110.933594c-4.710938.003906-8.53125 3.824218-8.535156 8.535156v247.464844h110.933593c4.714844 0 8.535157 3.820312 8.535157 8.535156 0 4.710938-3.820313 8.53125-8.535157 8.53125zm0 0"/><path d="m486.398438 341.335938h-93.863282c-9.421875-.011719-17.058594-7.648438-17.070312-17.070313v-51.199219c.011718-9.421875 7.648437-17.054687 17.070312-17.066406h93.863282c4.714843 0 8.535156 3.820312 8.535156 8.535156v68.265625c0 4.710938-3.820313 8.535157-8.535156 8.535157zm-93.863282-68.269532v51.199219h85.332032v-51.199219zm0 0"/><path d="m392.535156 392.535156c-4.714844 0-8.535156-3.820312-8.535156-8.535156v-17.066406c0-4.710938 3.820312-8.53125 8.535156-8.53125 4.710938 0 8.53125 3.820312 8.53125 8.53125v17.066406c0 4.714844-3.820312 8.535156-8.53125 8.535156zm0 0"/><path d="m426.667969 307.199219c-3.453125 0-6.5625-2.078125-7.882813-5.265625-1.320312-3.1875-.589844-6.859375 1.847656-9.300782l34.132813-34.132812c3.347656-3.234375 8.671875-3.1875 11.964844.105469 3.289062 3.292969 3.335937 8.613281.101562 11.960937l-34.132812 34.132813c-1.597657 1.605469-3.769531 2.503906-6.03125 2.5zm0 0"/><path d="m187.734375 276.140625c-4.714844 0-8.535156-3.820313-8.535156-8.535156v-37.203125c0-4.714844 3.820312-8.535156 8.535156-8.535156 4.710937 0 8.53125 3.820312 8.53125 8.535156v37.203125c0 4.714843-3.820313 8.535156-8.53125 8.535156zm0 0"/></svg>