<svg id="filled_outline" height="512" viewBox="0 0 512 512" width="512" xmlns="http://www.w3.org/2000/svg" data-name="filled outline"><path d="m280 280v-184a48 48 0 0 1 48-48h96.0001a48 48 0 0 1 48 48v184z" fill="#c7894c"/><circle cx="264" cy="200" fill="#e6a565" r="104"/><path d="m196.58536 231.70732-42.39953-102.97032a71.4474 71.4474 0 0 0 -34.11356-36.70087h-.00008a62.69061 62.69061 0 0 0 -84.10828 28.0361v.00008a62.69059 62.69059 0 0 0 -2.96619 49.12123l30.50439 85.41231.49789 25.39415h136z" fill="#f5b97d"/><path d="m416.191 464h-320.382a32 32 0 0 1 -30.65044-22.80487l-41.15856-137.19513h464l-41.15854 137.19513a32 32 0 0 1 -30.65046 22.80487z" fill="#b1712c"/><path d="m24 304v-24l112-72 184 72v24z" fill="#fcd453"/><path d="m488 304v-32l-64-48-104 56v24z" fill="#fac623"/><path d="m492.7998 265.6001-12.8-9.6001h.0002v-160a56.06353 56.06353 0 0 0 -56-56h-96a56.07564 56.07564 0 0 0 -55.46069 48.32306q-4.22845-.32034-8.53931-.32306a111.81172 111.81172 0 0 0 -95.75793 53.86182l-6.65857-16.1709a79.44268 79.44268 0 0 0 -37.9336-40.81006 70.69027 70.69027 0 0 0 -94.84131 31.61377 71.024 71.024 0 0 0 -3.34472 55.38965l28.3667 79.42834-34.15674 21.95789a8.00069 8.00069 0 0 0 -3.67383 6.72949v24h.01343a7.97667 7.97667 0 0 0 .324 2.29883l41.15866 137.19531a39.75344 39.75344 0 0 0 38.31299 28.50586h320.38184a39.75344 39.75344 0 0 0 38.313-28.50586l41.15868-137.19531a7.97667 7.97667 0 0 0 .324-2.29883h.0134v-32a7.99927 7.99927 0 0 0 -3.2002-6.3999zm-12.7998 30.3999h-152v-11.22137l95.29053-51.31086 56.70947 42.53223zm-9.95239 40h-50.04761a12 12 0 0 1 0-24h57.24756zm-138.04761 80a12 12 0 0 1 0-24h54.707a27.95093 27.95093 0 0 0 0 24zm-112 0a12 12 0 0 1 0-24h86.707a27.95093 27.95093 0 0 0 0 24zm-104 0a12 12 0 0 1 0-24h78.707a27.95093 27.95093 0 0 0 0 24zm-81.24756-104h55.95456a27.95093 27.95093 0 0 0 0 24h-48.75461zm397.24756 52a12.01375 12.01375 0 0 1 -12 12h-54.707a27.95093 27.95093 0 0 0 0-24h54.707a12.01375 12.01375 0 0 1 12 12zm-154.707 12a27.95093 27.95093 0 0 0 0-24h62.707a12 12 0 0 1 0 24zm-104 0a27.95093 27.95093 0 0 0 0-24h78.707a12 12 0 0 1 0 24zm-88 0a27.95093 27.95093 0 0 0 0-24h62.707a12 12 0 0 1 0 24zm309.414-40h-78.707a12 12 0 0 1 0-24h78.707a27.95093 27.95093 0 0 0 0 24zm-104 0h-86.707a12 12 0 0 1 0-24h86.707a27.95093 27.95093 0 0 0 0 24zm-112 0h-62.707a12 12 0 0 1 0-24h62.707a27.95093 27.95093 0 0 0 0 24zm-118.707 16a12 12 0 0 1 0 24h-6.04761l-7.2-24zm-1.24756 40h31.95456a27.95093 27.95093 0 0 0 0 24h-24.75461zm341.24756 12a12.01375 12.01375 0 0 1 12-12h41.24756l-7.2 24h-34.04756a12.01375 12.01375 0 0 1 -12-12zm45.293-28a27.95093 27.95093 0 0 0 0-24h19.95459l-7.2 24zm-117.293-320h96a40.04521 40.04521 0 0 1 40 40v148.00024l-35.2002-26.40014a8.00272 8.00272 0 0 0 -8.59277-.644l-54.17163 29.16927a111.94954 111.94954 0 0 0 -77.67065-155.44837 40.05241 40.05241 0 0 1 39.63525-34.677zm-64 48a95.992 95.992 0 0 1 73.88538 157.28308l-18.41883 9.91785-21.27855-8.32648-18.87452-18.87445 28.68652-28.68652 22.34326 22.34326 11.31348-11.31348-22.34326-22.34326 22.34326-22.34326-11.31348-11.31348-22.34326 22.34326-28.68652-28.68652 22.34326-22.34326-11.31348-11.31348-22.34326 22.34326-22.34326-22.34326-11.31348 11.31348 22.34326 22.34326-28.68652 28.68652-22.34326-22.34326-11.31348 11.31348 22.34326 22.34326-16.1914 16.19135-24.30249-59.02082a95.85517 95.85517 0 0 1 87.80737-57.17053zm-7.31348 140-1.8938 1.89374-41.23681-16.13617 14.44409-14.44409zm-17.373-40 28.68648-28.68652 28.68652 28.68652-28.68652 28.68652zm-191.44279-16.94806 17.78943-21.34735a60.134 60.134 0 0 1 39.78076-21.35059 54.428 54.428 0 0 1 -13.33447 42.98438l-31.48389 35.41937zm18.88769 52.88666 37.307-41.97034a70.42632 70.42632 0 0 0 15.6958-63.90869 8.00059 8.00059 0 0 0 -7.76122-6.05957 76.11753 76.11753 0 0 0 -58.63184 27.46143l-11.74585 14.09491-1.09057-3.0539a54.94949 54.94949 0 0 1 2.5874-42.85254 54.6908 54.6908 0 0 1 73.37549-24.45849 63.44564 63.44564 0 0 1 30.29394 32.5913l35.26685 85.64856-43.14038-16.881a7.99477 7.99477 0 0 0 -7.24121.72022l-64.02564 41.15938zm70.13123-23.00012 175.11035 68.52197v10.53955h-280v-11.63232zm-41.08057 239.06152a23.85213 23.85213 0 0 1 -22.98779-17.10352l-2.06897-6.89648h85.24768a12 12 0 0 1 0 24zm85.48389 0a27.95093 27.95093 0 0 0 0-24h62.70703a12 12 0 0 1 0 24zm88 0a27.95093 27.95093 0 0 0 0-24h78.70703a12 12 0 0 1 0 24zm146.89795 0h-42.89792a27.95093 27.95093 0 0 0 0-24h67.95471l-2.069 6.89648a23.85213 23.85213 0 0 1 -22.98779 17.10352z"/><path d="m416 76.686h16v22.627h-16z" transform="matrix(.707 -.707 .707 .707 61.961 325.588)"/><path d="m391.056 108h17.889v16h-17.889z" transform="matrix(.894 -.447 .447 .894 -9.648 191.132)"/><path d="m388.686 152h22.627v16h-22.627z" transform="matrix(.707 -.707 .707 .707 4.02 329.706)"/><path d="m428 127.056h16v17.889h-16z" transform="matrix(.894 -.447 .447 .894 -14.791 209.343)"/><path d="m352 84.686h16v22.627h-16z" transform="matrix(.707 -.707 .707 .707 37.559 282.676)"/><path d="m428 183.056h16v17.889h-16z" transform="matrix(.894 -.447 .447 .894 -39.835 215.255)"/><path d="m395.056 192h17.889v16h-17.889z" transform="matrix(.447 -.894 .894 .447 44.44 471.906)"/></svg>