<svg height="512pt" viewBox="-9 0 512 512.00229" width="512pt" xmlns="http://www.w3.org/2000/svg"><path d="m467.867188 247.175781v254.292969c.425781 5.332031-3.503907 10.019531-8.828126 10.535156h-423.722656c-5.324218-.515625-9.253906-5.203125-8.828125-10.535156v-254.292969zm0 0" fill="#f3d55b"/><path d="m450.214844 247.175781v254.292969c.574218 5.125-3.019532 9.785156-8.125 10.535156h-389.824219c-5.105469-.75-8.695313-5.410156-8.121094-10.535156v-254.292969zm0 0" fill="#f9eab0"/><path d="m494.351562 218.257812v36.242188c.304688 18.5625-13.433593 34.371094-31.859374 36.652344-9.917969.976562-19.789063-2.289063-27.171876-8.984375-7.382812-6.695313-11.59375-16.199219-11.589843-26.164063 0 19.5-15.808594 35.308594-35.3125 35.308594-19.5 0-35.308594-15.808594-35.308594-35.308594 0 19.5-15.808594 35.308594-35.308594 35.308594-19.503906 0-35.3125-15.808594-35.3125-35.308594 0 19.5-15.808593 35.308594-35.308593 35.308594-19.503907 0-35.3125-15.808594-35.3125-35.308594 0 19.5-15.808594 35.308594-35.308594 35.308594-19.503906 0-35.3125-15.808594-35.3125-35.308594 0 19.5-15.808594 35.308594-35.308594 35.308594s-35.3125-15.808594-35.3125-35.308594c.003906 9.964844-4.207031 19.46875-11.589844 26.164063-7.382812 6.691406-17.253906 9.957031-27.171875 8.980469-18.421875-2.28125-32.160156-18.085938-31.8554685-36.648438v-36.242188c0-4.128906 1.4453125-8.128906 4.0898435-11.300781l29.457032-35.351562c6.710937-8.050781 16.648437-12.707031 27.128906-12.707031h372.992187c10.476563 0 20.417969 4.65625 27.125 12.707031l29.457031 35.347656c2.644532 3.171875 4.09375 7.171875 4.09375 11.304687zm0 0" fill="#c03a2b"/><path d="m229.523438 335.449219v88.277343c-.015626 4.871094-3.957032 8.8125-8.828126 8.828126h-123.585937c-2.34375.011718-4.597656-.914063-6.253906-2.574219-1.660157-1.65625-2.585938-3.910157-2.574219-6.253907v-88.277343c.015625-4.867188 3.957031-8.8125 8.828125-8.828125h123.585937c4.871094.015625 8.8125 3.960937 8.828126 8.828125zm0 0" fill="#90bae1"/><path d="m308.972656 326.621094h105.929688c4.875 0 8.828125 3.953125 8.828125 8.828125v176.554687h-123.585938v-176.554687c0-4.875 3.953125-8.828125 8.828125-8.828125zm0 0" fill="#e64c3c"/><path d="m423.730469 335.449219v176.554687h-61.792969v-185.382812h52.964844c4.871094.015625 8.8125 3.960937 8.828125 8.828125zm0 0" fill="#c03a2b"/><path d="m388.417969 370.761719v17.65625c0 4.875-3.949219 8.824219-8.824219 8.824219h-35.3125c-4.875 0-8.828125-3.949219-8.828125-8.824219v-17.65625c0-4.875 3.953125-8.828125 8.828125-8.828125h35.3125c4.875 0 8.824219 3.953125 8.824219 8.828125zm0 0" fill="#b0d3f0"/><path d="m344.28125 441.382812h-8.828125c-4.875 0-8.828125-3.953124-8.828125-8.828124s3.953125-8.828126 8.828125-8.828126h8.828125c4.875 0 8.828125 3.953126 8.828125 8.828126s-3.953125 8.828124-8.828125 8.828124zm0 0" fill="#802f34"/><g fill="#fff"><path d="m111.941406 408.542969-21.980468 20.390625c-1.089844-1.515625-1.679688-3.339844-1.679688-5.207032v-17.300781l11.652344-10.859375c1.707031-1.59375 3.980468-2.445312 6.316406-2.363281 2.335938.085937 4.539062 1.09375 6.132812 2.804687 3.320313 3.589844 3.121094 9.1875-.441406 12.535157zm0 0"/><path d="m200.039062 326.621094-53.671874 49.964844c-1.65625 1.46875-3.789063 2.285156-6.003907 2.296874-2.457031.046876-4.8125-.984374-6.441406-2.824218-1.617187-1.699219-2.476563-3.976563-2.394531-6.316406.082031-2.34375 1.105468-4.550782 2.835937-6.132813l39.8125-36.988281zm0 0"/><path d="m191.125 400.773438-34.164062 31.78125h-25.863282l48.019532-44.667969c2.304687-2.144531 5.574218-2.898438 8.582031-1.976563 3.007812.921875 5.296875 3.378906 6.003906 6.445313.707031 3.066406-.277344 6.273437-2.578125 8.417969zm0 0"/><path d="m229.523438 341.101562v24.007813l-3.53125 3.269531c-1.703126 1.601563-3.976563 2.460938-6.316407 2.375-2.335937-.082031-4.546875-1.097656-6.128906-2.816406-1.597656-1.710938-2.445313-3.980469-2.363281-6.316406.082031-2.335938 1.089844-4.542969 2.804687-6.132813zm0 0"/></g><path d="m379.59375 70.621094h-44.152344c-34.703125-2.234375-65.15625-23.90625-78.632812-55.964844l-2.664063-4.894531c-3.664062-7.324219-11.878906-11.167969-19.851562-9.289063-7.96875 1.882813-13.597657 8.996094-13.597657 17.183594v17.65625c-.027343 9.738281-7.914062 17.625-17.65625 17.65625h-52.964843c-9.738281-.03125-17.625-7.917969-17.65625-17.65625v-17.65625c-.011719-5.203125-2.316407-10.140625-6.300781-13.492188-3.980469-3.351562-9.238282-4.78125-14.367188-3.910156-8.695312 1.828125-14.851562 9.59375-14.640625 18.476563v104.859375c-4.871094.011718-8.8125 3.957031-8.828125 8.828125v26.480469h211.863281c29.183594 1.046874 58.378907-1.683594 86.863281-8.121094 11.332032-3.25 19.121094-13.636719 19.066407-25.421875v-28.25c.011719-7.027344-2.777344-13.769531-7.746094-18.734375-4.96875-4.96875-11.710937-7.757813-18.734375-7.75zm0 0" fill="#547580"/><path d="m317.800781 123.324219c-5.5625.175781-11.390625.265625-17.65625.265625h-203.035156v-104.859375c-.210937-8.882813 5.941406-16.652344 14.640625-18.472657 5.128906-.875 10.386719.554688 14.367188 3.90625 3.984374 3.351563 6.289062 8.289063 6.300781 13.492188v17.65625c.03125 9.738281 7.917969 17.625 17.65625 17.65625h52.964843c9.742188-.03125 17.628907-7.917969 17.65625-17.65625v-17.65625c0-9.75 7.90625-17.65234375 17.65625-17.65234375 6.6875 0 12.800782 3.77734375 15.792969 9.75781275l2.664063 4.894531c13.476562 32.054688 43.929687 53.730469 78.632812 55.964844h26.496094" fill="#2c3e50"/><path d="m406.074219 97.105469s-7.765625 23.21875-88.273438 26.21875v-17.390625c-.003906-9.367188 3.714844-18.347656 10.335938-24.972656 6.625-6.621094 15.605469-10.339844 24.972656-10.339844h26.484375c7.023438-.007813 13.765625 2.78125 18.734375 7.75 4.96875 4.964844 7.757813 11.707031 7.746094 18.734375zm0 0" fill="#547580"/><path d="m493.113281 211.863281h-491.871093c.644531-1.800781 1.601562-3.472656 2.824218-4.941406l29.484375-35.3125c6.710938-8.03125 16.632813-12.6875 27.101563-12.710937h373.054687c10.464844.023437 20.386719 4.679687 27.097657 12.710937l29.484374 35.3125c1.226563 1.46875 2.183594 3.140625 2.824219 4.941406zm0 0" fill="#e64c3c"/></svg>